<svg height="512" viewBox="0 0 24 24" width="512" xmlns="http://www.w3.org/2000/svg"><path d="M23.773 21.937l-2.636-14.5A1.748 1.748 0 0019.416 6H4.584a1.75 1.75 0 00-1.722 1.437l-2.636 14.5a1.743 1.743 0 00.378 1.434c.333.4.824.629 1.344.629h20.104c.521 0 1.011-.229 1.344-.629.333-.399.471-.922.377-1.434zm-12.978-3.109a.75.75 0 01-1.061.029L7.5 16.743v1.507a.75.75 0 01-1.5 0v-6.5a.75.75 0 011.5 0v1.53l2.24-2.08a.75.75 0 111.02 1.1l-2.914 2.706 2.919 2.762a.75.75 0 01.03 1.06zM18 13.75a.75.75 0 01-1.5 0v-.25c0-.551-.449-1-1-1s-1 .449-1 1v3c0 .551.449 1 1 1s1-.449 1-1h-.75a.75.75 0 010-1.5h1.5a.75.75 0 01.75.75v.75c0 1.378-1.122 2.5-2.5 2.5S13 17.878 13 16.5v-3c0-1.378 1.122-2.5 2.5-2.5s2.5 1.122 2.5 2.5z"/><path d="M12 7.5c-2.068 0-3.75-1.682-3.75-3.75S9.932 0 12 0s3.75 1.682 3.75 3.75S14.068 7.5 12 7.5zM12 2c-.965 0-1.75.785-1.75 1.75S11.035 5.5 12 5.5s1.75-.785 1.75-1.75S12.965 2 12 2z"/></svg>