<svg xmlns="http://www.w3.org/2000/svg" viewBox="0 0 335.883 335.883"><g fill="#010002"><path d="M44.469 321.391l-.044-.076c6.005 2.377 12.499 3.775 19.347 3.775 27.135 0 49.479-20.396 52.617-46.689-6.783 2.6-14.114 4.085-21.794 4.085-9.007 0-17.541-2.007-25.248-5.521l-1.49 11.863H30.686l7.859 22.703-15.969-26.543 36.812-5.118-.114-8.692c-15.626-11.096-25.874-29.3-25.874-49.882 0-2.317.158-4.601.408-6.853-22.387 8.702-36.746 31.851-33.298 56.68 2.943 21.125 24.813 44.432 43.959 50.268z"/><path d="M195.892 10.793l-92.203 128.906-15.398-84.246-20.679 94.417-22.425-27.892v81.188c0 2.915.033 5.624.092 8.213.435 17.465 2.861 28.256 13.772 42.419 2.518 3.269 5.45 6.701 8.953 10.459a22.23 22.23 0 002.638 2.382c5.586 4.319 14.103 6.772 26.031 7.582 2.948.201 6.037.337 9.42.337 3.421 0 6.967-.109 10.595-.299 3.127-.163 6.304-.392 9.518-.674 35.387-3.106 74.227-12.613 76.174-13.092l37.579-9.274-73.563-12.891 107.166-38.106H166.543l169.34-179.407-183.052 125.906 43.061-135.928zm-46.379 183.699l-5.988 6.347-6.26 6.636-8.556 9.067h50.268l-23.361 8.305-8.425 2.997-8.79 3.127-30.992 11.02-4.83 1.719 6.679 1.169 20.924 3.666 8.915 1.561 8.594 1.507 8.8 1.545a562.05 562.05 0 01-10.748 1.664 405.896 405.896 0 01-11.362 1.479 307.64 307.64 0 01-13.505 1.305c-2.04.152-4.003.25-5.983.348-2.981.141-5.978.299-8.779.299-19.842 0-25.041-3.922-26.162-5.118-2.567-2.752-4.737-5.232-6.641-7.566-11.215-13.777-11.786-21.914-11.786-42.387v-34.863l.854 1.066 5.14 6.385 5.162 6.418 3.595 4.471 1.518-6.935 2.045-9.333 1.953-8.909 5.075-23.181 4.019 21.99 1.479 8.082 1.479 8.082.74 4.052 2.823-3.949 5.434-7.598 5.232-7.321 41.163-57.551-20.957 66.161-2.578 8.142-2.611 8.251-.163.446.364-.25 6.913-4.754 6.875-4.727 81.548-56.088-69.114 73.223zm103.941 98.387l-116.864-5.635 114.248 15.741c17.41-3.889 2.616-10.106 2.616-10.106z"/><path d="M52.143 61.839l9.317 63.327s-2.366-71.943-1.36-80.052c1.007-8.104-11.96-10.519-7.957 16.725zm186.734-23.791l-59.672 70.827s75.897-71.067 85.709-77.615c9.806-6.554-.37-23.687-26.037 6.788z"/></g></svg>