<svg xmlns="http://www.w3.org/2000/svg" viewBox="0 0 417.039 417.039"><path d="M412.353 95.197c-6.258-6.254-16.383-6.246-22.629 0-3.746 3.742-8.317 6.394-14.262 8.367l-62.047-62.047c1.977-5.946 4.668-10.446 8.426-14.203 6.246-6.246 6.254-16.371 0-22.625s-16.379-6.25-22.629 0c-16.617 16.617-21.461 37.207-22.39 75.434a16.005 16.005 0 004.547 11.562 15.998 15.998 0 0011.45 4.836h1.481c7.957 0 14.426-6.422 14.488-14.379l26.047 26.047c-7.676.145-16.094.183-26.098.094l-32.05-.438c-39.621-.625-98.606-4.406-135.965 32.95-24.598 24.602-31.805 61.262-33.301 99.242a15.878 15.878 0 004.41 11.61 15.868 15.868 0 0011.426 4.875h.348c8.55 0 15.543-6.778 15.828-15.324.246-7.348.722-14.516 1.508-21.434l56.371 56.375c-19.383 2.07-39.699 1.324-57.465 1.058l-32.008-.446c-63.61-.645-82.473 1.785-103.149 22.461-6.25 6.25-6.258 16.375 0 22.629 6.25 6.254 16.379 6.25 22.625 0 4.114-4.114 8.324-6.992 14.363-9.004l62.004 62c-2.023 5.988-4.707 11.11-8.484 14.886-6.25 6.246-6.254 16.375 0 22.629 6.254 6.25 16.379 6.246 22.625 0 17.094-17.094 21.934-44.57 22.782-75.543a15.85 15.85 0 00-4.481-11.484 15.848 15.848 0 00-11.355-4.805h-1.805c-7.813 0-14.168 6.285-14.25 14.098L82.816 308.72c7.351-.082 15.711-.058 25.461.043l32.016.438c39.789.606 98.695 4.371 135.953-32.886 26.117-26.117 32.484-71.211 33.242-108.106.187-8.981-7-16.394-15.984-16.394-8.656 0-15.801 6.898-15.922 15.554-.098 6.687-.43 21.629-1.266 29.379-16.645-16.641-36.222-36.222-55.906-55.906 19.218-1.992 39.27-1.262 56.742-.988l32.027.446c55.957.516 82.691-1.992 103.176-22.473 6.243-6.252 6.247-16.377-.002-22.63zM267.321 233.013c-3.606 8.137-8.098 15.07-13.711 20.68-5.789 5.789-12.715 9.969-20.164 13.328l-83.48-83.484c3.383-7.582 7.683-14.414 13.379-20.11 5.95-5.95 13.074-10.242 20.75-13.641 27.82 27.817 59.882 59.884 83.226 83.227z"/></svg>