<svg height="512" viewBox="0 0 511.96 511.96" width="512" xmlns="http://www.w3.org/2000/svg"><path d="M90.41 313.483c-.414 0 .422.053 0 0z"/><path d="M492.528 452.001a468.99 468.99 0 01-102.053-11.246c4.455-12.393 6.847-25.614 6.981-39.207.307-31.045-11.224-60.017-32.468-81.579-14.096-14.307-31.706-24.722-50.925-30.118a9.929 9.929 0 00-.501-.127c-48.523-13.576-92.385-37.347-130.368-70.659-4.153-3.642-10.47-3.228-14.112.924-3.641 4.152-3.228 10.471.925 14.112 13.841 12.138 28.419 23.081 43.681 32.8a116.066 116.066 0 0112.906 56.809c-.166 5.521 4.175 10.13 9.695 10.296.102.003.204.004.306.004 5.384 0 9.827-4.282 9.99-9.7a136.29 136.29 0 00-5.181-41.499 351.921 351.921 0 0051.479 21.52c10.281 16.672 16.195 35.663 17.133 55.15.257 5.353 4.678 9.519 9.98 9.519.162 0 .326-.004.489-.012 5.516-.266 9.773-4.953 9.507-10.469-.755-15.691-4.271-31.099-10.287-45.543a95.695 95.695 0 0131.035 21.029c26.915 27.317 33.6 67.637 20.248 101.969-105.986-28.425-200.206-93.491-264.417-185.688-3.157-4.532-9.388-5.646-13.921-2.491-4.532 3.156-5.647 9.389-2.491 13.921 44.26 63.551 103.696 116.388 171.881 152.798 31.577 16.861 65.021 30.146 99.55 39.686a97.613 97.613 0 01-11.794 14.635c-20.915 19.974-52.305 27.937-80.02 20.287-32.575-8.99-63.558-23.067-91.793-41.539a134.908 134.908 0 0027.387-5.642c5.265-1.667 8.181-7.288 6.514-12.553-1.668-5.264-7.285-8.179-12.553-6.514-15.964 5.057-32.438 6.555-49.01 4.475a328.57 328.57 0 01-24.845-22.421c-29.235-29.235-51.981-63.156-67.965-99.648 10.306 4.022 21.717 6.799 32.898 8.199 4.968 0 9.904-3.661 10.537-8.719.687-5.48-3.199-10.479-8.68-11.165-16.211-2.031-31.447-7.341-45.352-15.787-25.474-75.975-23.051-160.33 9.755-235.768 9.607 44.114 27.614 86.349 52.852 123.601 3.098 4.571 9.314 5.768 13.888 2.67 4.572-3.098 5.768-9.315 2.67-13.888C96.777 111.173 77.806 60.797 71.22 8.746A9.998 9.998 0 0063.178.18a9.997 9.997 0 00-10.636 4.993C34.532 37.828 21.969 73.052 15.2 109.864a349.105 349.105 0 00-2.646 109.789c10.219 76.058 44.377 145.017 98.78 199.421 42.531 42.531 95.48 73.42 153.122 89.33 8.678 2.395 17.644 3.557 26.619 3.557 26.517 0 53.095-10.146 72.445-28.578.112-.103.228-.195.338-.303.097-.095.177-.196.269-.293a116.356 116.356 0 0017.744-23.435c36.169 8.358 73.342 12.651 110.658 12.651 5.523 0 10-4.477 10-10s-4.478-10.002-10.001-10.002z"/><path d="M145.414 205.561c2.63 0 5.21-1.07 7.07-2.93s2.93-4.44 2.93-7.07-1.07-5.21-2.93-7.07-4.44-2.93-7.07-2.93-5.21 1.07-7.07 2.93-2.93 4.44-2.93 7.07c0 2.64 1.07 5.21 2.93 7.07s4.44 2.93 7.07 2.93z"/></svg>