<svg height="512" width="512" xmlns="http://www.w3.org/2000/svg"><path d="M497 161h-41.806a102.608 102.608 0 00-93.44-60H285c-25.127 0-46.356 16.943-52.904 40H175c-24.813 0-45 20.187-45 45 0 11.517 4.354 22.032 11.495 30-7.141 7.968-11.495 18.484-11.495 30s4.354 22.032 11.495 30C134.354 283.968 130 294.483 130 306c0 20.723 14.085 38.209 33.181 43.414A44.752 44.752 0 00160 366c0 24.813 20.187 45 45 45h183.944c24.812 0 48.022-11.079 63.583-30H497c8.284 0 15-6.716 15-15V176c0-8.284-6.716-15-15-15zm-322 10h55v30h-55c-8.271 0-15-6.729-15-15s6.729-15 15-15zm0 60h55v25c0 1.698.128 3.366.363 5H175c-8.271 0-15-6.729-15-15s6.729-15 15-15zm60 150h-30c-8.271 0-15-6.729-15-15s6.729-15 15-15h30c8.271 0 15 6.729 15 15s-6.729 15-15 15zm30-60h-90c-8.271 0-15-6.729-15-15s6.729-15 15-15h90c8.271 0 15 6.729 15 15s-6.729 15-15 15zm217 30h-37a14.997 14.997 0 00-12.48 6.679A52.268 52.268 0 01388.944 381H277.42a44.79 44.79 0 002.58-15 44.756 44.756 0 00-3.181-16.586C295.915 344.209 310 326.723 310 306c0-10.516-3.636-20.193-9.703-27.863C312.331 268.04 320 252.902 320 236v-15.858C338.823 233.691 361.351 241 385 241c8.284 0 15-6.716 15-15s-6.716-15-15-15c-21.788 0-42.271-8.484-57.678-23.891l-11.716-11.716a15.002 15.002 0 00-25.607 10.606v50c0 13.785-11.215 25-25 25-2.757 0-5-2.243-5-5V156c0-13.785 11.215-25 25-25h76.754a72.657 72.657 0 0169.016 49.744A15.001 15.001 0 00445 191h37z"/><path d="M366.82 441.448c-6.175-5.522-15.657-4.994-21.18 1.182l-32.583 36.435-45.163-18.738a15.009 15.009 0 00-11.497 0l-45.163 18.738-32.584-36.435a15.006 15.006 0 00-10.324-4.977l-48.815-2.794-13.549-46.986a15 15 0 00-7.164-8.976L56 355.273l8.176-48.187a15 15 0 00-2.545-11.176L33.378 256l28.251-39.91a14.998 14.998 0 002.545-11.176l-8.176-48.188 42.798-23.624a15 15 0 007.164-8.976l13.55-46.986 48.815-2.793a15.001 15.001 0 0010.324-4.977l32.583-36.435 45.164 18.738a15.009 15.009 0 0011.497 0l45.163-18.738L345.64 69.37c5.521 6.175 15.004 6.704 21.18 1.182 6.175-5.522 6.705-15.005 1.182-21.18l-39.68-44.37a15 15 0 00-16.93-3.856l-49.248 20.433-49.248-20.433a15.002 15.002 0 00-16.93 3.856L160.42 44.75l-53.235 3.046a15 15 0 00-13.556 10.819l-14.772 51.226-46.677 25.765a15.002 15.002 0 00-7.54 15.641l8.919 52.571-30.802 43.516a15 15 0 000 17.333l30.803 43.516-8.919 52.569a15 15 0 007.54 15.642l46.677 25.765 14.772 51.226a14.999 14.999 0 0013.556 10.819l53.235 3.047 35.547 39.748a14.992 14.992 0 0016.93 3.855l49.248-20.433 49.248 20.433a15.003 15.003 0 0016.93-3.856l39.68-44.37c5.52-6.175 4.991-15.658-1.184-21.18z"/></svg>