<?xml version="1.0"?>
<svg xmlns="http://www.w3.org/2000/svg" width="512" height="512" viewBox="0 0 128 128"><g><path d="M127.348,81.365,119.5,75.049V60.9a1.744,1.744,0,0,0-.425-1.142l-4.312-5a1.807,1.807,0,0,0-2.651,0l-4.312,5a1.744,1.744,0,0,0-.425,1.142v4.392l-5-4.024V48.274a1.744,1.744,0,0,0-.425-1.142l-4.312-5a1.807,1.807,0,0,0-2.651,0l-4.312,5a1.744,1.744,0,0,0-.425,1.142v3.235L78.864,42.346,76.435,24.132a1.738,1.738,0,0,0-.152-.517L65.582,1a1.751,1.751,0,0,0-3.164,0l-10.7,22.617a1.77,1.77,0,0,0-.153.517L49.136,42.346,37.75,51.509V48.274a1.749,1.749,0,0,0-.424-1.142l-4.313-5a1.807,1.807,0,0,0-2.651,0l-4.313,5a1.749,1.749,0,0,0-.424,1.142V61.267l-5,4.024V60.9a1.749,1.749,0,0,0-.424-1.142l-4.313-5a1.807,1.807,0,0,0-2.651,0l-4.313,5A1.749,1.749,0,0,0,8.5,60.9v14.15L.653,81.365A1.748,1.748,0,0,0,0,82.728v19.655a1.751,1.751,0,0,0,1.75,1.75,1.721,1.721,0,0,0,.421-.052l41.66-10.342,7.736,6.868-15.789,12.13a1.749,1.749,0,0,0-.552,2.056l5,12.122a1.746,1.746,0,0,0,2.217.976l16.178-5.9H69.392l17.192,5.91a1.807,1.807,0,0,0,2.231-1.106l4-12.122a1.751,1.751,0,0,0-.595-1.937l-15.79-12.13,7.735-6.868,41.66,10.342a1.75,1.75,0,0,0,2.172-1.7V82.728A1.75,1.75,0,0,0,127.348,81.365ZM110.875,61.549l2.562-2.973L116,61.549V72.232l-5.125-4.124ZM93.75,48.924l2.562-2.973,2.563,2.973V58.45L93.75,54.326ZM64,5.839l9,19.027.56,4.2-1.556-1.93A10.24,10.24,0,0,0,64,23.308h0a10.243,10.243,0,0,0-8.007,3.829l-1.555,1.929.56-4.2Zm10.035,29.39L71.014,33.5a14.195,14.195,0,0,0-14.028,0l-3.021,1.726,4.753-5.895a6.785,6.785,0,0,1,10.564,0Zm-44.91,13.7,2.562-2.973,2.563,2.973v5.4l-5.125,4.125ZM12,72.232V61.549l2.562-2.973,2.563,2.973v6.559ZM3.5,83.566,48.465,47.378,42.727,90.407l-6.781,1.684,3.348-25.114a1.75,1.75,0,0,0-2.832-1.595L10.653,86.153A1.748,1.748,0,0,0,10,87.516V98.532l-6.5,1.613Zm10,14.1V88.354l21.747-17.5L32.294,93Zm54.756,20.829H59.744l-3.287-16.038H71.542Zm-29.283-3.8L53.16,103.8l1.8,8.8,1.336,6.518-13.474,4.913Zm47.074,9.32-14.339-4.929,3.133-15.29L89.1,114.756ZM73.022,98.954H54.977l-8.815-7.826L52.513,43.5v0l.493-3.692,5.717-3.266a10.683,10.683,0,0,1,10.554,0L75,39.808l.492,3.691v0l5.665,42.48.686,5.146Zm19.732-28.1,21.746,17.5v9.309L95.706,93ZM124.5,100.145,118,98.532V87.516a1.75,1.75,0,0,0-.652-1.363L91.538,65.382a1.75,1.75,0,0,0-2.832,1.595l3.349,25.114-6.783-1.684L79.535,47.378,124.5,83.566Z"/><path d="M70.551,55.664a1.751,1.751,0,0,0-1.735-1.519H59.183a1.751,1.751,0,0,0-1.735,1.519L53.185,87.639a1.749,1.749,0,0,0,.573,1.54l3.192,2.834a1.749,1.749,0,0,0,1.161.441H69.889a1.754,1.754,0,0,0,1.162-.441l3.191-2.834a1.746,1.746,0,0,0,.572-1.54Zm-1.327,33.29H58.776l-2-1.774,3.938-29.535h6.569L71.223,87.18Z"/></g></svg>
