<svg xmlns="http://www.w3.org/2000/svg" width="512" height="512" viewBox="0 0 128 128"><path d="M127.348 81.365l-7.848-6.316V60.9a1.744 1.744 0 00-.425-1.142l-4.312-5a1.807 1.807 0 00-2.651 0l-4.312 5a1.744 1.744 0 00-.425 1.142v4.392l-5-4.024V48.274a1.744 1.744 0 00-.425-1.142l-4.312-5a1.807 1.807 0 00-2.651 0l-4.312 5a1.744 1.744 0 00-.425 1.142v3.235l-11.386-9.163-2.429-18.214a1.738 1.738 0 00-.152-.517L65.582 1a1.751 1.751 0 00-3.164 0l-10.7 22.617a1.77 1.77 0 00-.153.517l-2.429 18.212-11.386 9.163v-3.235a1.749 1.749 0 00-.424-1.142l-4.313-5a1.807 1.807 0 00-2.651 0l-4.313 5a1.749 1.749 0 00-.424 1.142v12.993l-5 4.024V60.9a1.749 1.749 0 00-.424-1.142l-4.313-5a1.807 1.807 0 00-2.651 0l-4.313 5A1.749 1.749 0 008.5 60.9v14.15L.653 81.365A1.748 1.748 0 000 82.728v19.655a1.751 1.751 0 001.75 1.75 1.721 1.721 0 00.421-.052l41.66-10.342 7.736 6.868-15.789 12.13a1.749 1.749 0 00-.552 2.056l5 12.122a1.746 1.746 0 002.217.976l16.178-5.9h10.771l17.192 5.91a1.807 1.807 0 002.231-1.106l4-12.122a1.751 1.751 0 00-.595-1.937l-15.79-12.13 7.735-6.868 41.66 10.342a1.75 1.75 0 002.172-1.7V82.728a1.75 1.75 0 00-.649-1.363zm-16.473-19.816l2.562-2.973L116 61.549v10.683l-5.125-4.124zM93.75 48.924l2.562-2.973 2.563 2.973v9.526l-5.125-4.124zM64 5.839l9 19.027.56 4.2-1.556-1.93A10.24 10.24 0 0064 23.308a10.243 10.243 0 00-8.007 3.829l-1.555 1.929.56-4.2zm10.035 29.39L71.014 33.5a14.195 14.195 0 00-14.028 0l-3.021 1.726 4.753-5.895a6.785 6.785 0 0110.564 0zm-44.91 13.7l2.562-2.973 2.563 2.973v5.4l-5.125 4.125zM12 72.232V61.549l2.562-2.973 2.563 2.973v6.559zM3.5 83.566l44.965-36.188-5.738 43.029-6.781 1.684 3.348-25.114a1.75 1.75 0 00-2.832-1.595L10.653 86.153A1.748 1.748 0 0010 87.516v11.016l-6.5 1.613zm10 14.1v-9.312l21.747-17.5L32.294 93zm54.756 20.829h-8.512l-3.287-16.038h15.085zm-29.283-3.8L53.16 103.8l1.8 8.8 1.336 6.518-13.474 4.913zm47.074 9.32l-14.339-4.929 3.133-15.29 14.259 10.96zM73.022 98.954H54.977l-8.815-7.826L52.513 43.5l.493-3.692 5.717-3.266a10.683 10.683 0 0110.554 0L75 39.808l.492 3.691 5.665 42.48.686 5.146zm19.732-28.1l21.746 17.5v9.309L95.706 93zm31.746 29.291l-6.5-1.613V87.516a1.75 1.75 0 00-.652-1.363l-25.81-20.771a1.75 1.75 0 00-2.832 1.595l3.349 25.114-6.783-1.684-5.737-43.029L124.5 83.566z"/><path d="M70.551 55.664a1.751 1.751 0 00-1.735-1.519h-9.633a1.751 1.751 0 00-1.735 1.519l-4.263 31.975a1.749 1.749 0 00.573 1.54l3.192 2.834a1.749 1.749 0 001.161.441h11.778a1.754 1.754 0 001.162-.441l3.191-2.834a1.746 1.746 0 00.572-1.54zm-1.327 33.29H58.776l-2-1.774 3.938-29.535h6.569l3.94 29.535z"/></svg>