<svg xmlns="http://www.w3.org/2000/svg" viewBox="0 0 512 512"><path d="M494.933 183.312H273.067v-76.8a8.533 8.533 0 00-17.066 0v42.667H153.6v-8.533c-.02-18.843-15.29-34.113-34.133-34.133h-25.6V63.845a8.534 8.534 0 00-17.067 0v128H25.6c-14.132.015-25.585 11.468-25.6 25.6v85.333c.011 9.421 7.645 17.056 17.067 17.067h9.429c8.7.01 16.01-6.535 16.958-15.183l6.848-61.617H76.8v25.6c.011 9.421 7.646 17.056 17.067 17.067h34.103c.308 2.14.733 4.261 1.273 6.355L23.308 414.345a25.457 25.457 0 00-4.737 24.967H8.533c-4.713 0-8.533 3.82-8.533 8.533s3.82 8.533 8.533 8.533h30.97c1.108.168 2.226.266 3.346.292a28.154 28.154 0 003.446-.217c.106-.016.203-.058.308-.075H328.23c.142.024.272.079.415.1 2.25.31 4.534.276 6.775-.1h65.646c4.713 0 8.533-3.82 8.533-8.533s-3.82-8.533-8.533-8.533h-44.864a25.506 25.506 0 00-4.748-24.958L244.963 291.433a59.044 59.044 0 001.109-5.721H256c9.421-.011 17.056-7.645 17.067-17.067v-17.067h221.867c9.421-.011 17.056-7.646 17.067-17.067v-34.133c-.012-9.421-7.646-17.055-17.068-17.066zM26.496 302.779h-9.429v-59.733h16.067l-6.638 59.733zm50.304-76.8H17.067v-8.533a8.54 8.54 0 018.533-8.533h51.2v17.066zm17.067-102.4h25.6c9.421.011 17.056 7.645 17.067 17.067v8.533H93.867v-25.6zM44.68 439.312h-3.843a8.413 8.413 0 01-3.745-1.717 8.591 8.591 0 01-.892-12.058l100.605-116.134a60.125 60.125 0 0011.258 12.956L49.004 436.704a7.875 7.875 0 01-4.324 2.608zm100.537-153.6h83.608c-4.08 19.85-21.539 34.106-41.804 34.133-20.265-.028-37.724-14.283-41.804-34.133zm-75.897 153.6l92.101-106.316v97.782a25.29 25.29 0 001.573 8.533H69.32zm126.234-8.533c0 4.713-3.82 8.533-8.533 8.533s-8.533-3.82-8.533-8.533V336.23a53.748 53.748 0 0017.067 0v94.549zm15.494 8.533a25.274 25.274 0 001.572-8.533v-98.605l92.812 107.138h-94.384zm127.51-13.775a8.558 8.558 0 01-.787 11.958 8.995 8.995 0 01-3.546 1.817h-4.408a8.418 8.418 0 01-4.133-2.683l-99.305-114.632a60.092 60.092 0 0011.153-13.077l101.026 116.617zM93.867 268.645v-102.4H256l.003 25.584-.003.016v51.2l.009.046.003 25.554H93.867zm384-34.133a8.533 8.533 0 00-17.066 0h-17.067a8.533 8.533 0 00-17.066 0H409.6a8.533 8.533 0 00-17.066 0h-17.067a8.533 8.533 0 00-17.066 0h-17.067a8.533 8.533 0 00-17.066 0H307.2a8.533 8.533 0 00-17.066 0h-17.067v-34.133h17.067c0 4.713 3.82 8.533 8.533 8.533s8.533-3.82 8.533-8.533h17.067a8.533 8.533 0 0017.066 0H358.4c0 4.713 3.82 8.533 8.533 8.533s8.533-3.82 8.533-8.533h17.067a8.533 8.533 0 0017.066 0h17.067c0 4.713 3.82 8.533 8.533 8.533s8.533-3.82 8.533-8.533H460.8c0 4.713 3.82 8.533 8.533 8.533s8.533-3.82 8.533-8.533h17.067l.012 34.133h-17.078z"/><path d="M200.533 183.312c-16.495 0-29.867 13.372-29.867 29.867s13.372 29.867 29.867 29.867 29.867-13.372 29.867-29.867c-.02-16.487-13.38-29.847-29.867-29.867zm0 42.667a12.802 12.802 0 01-9.051-21.851 12.8 12.8 0 0121.851 9.051c-.007 7.066-5.734 12.792-12.8 12.8zm302.934 213.333H435.2c-4.713 0-8.533 3.82-8.533 8.533s3.82 8.533 8.533 8.533h68.267c4.713 0 8.533-3.82 8.533-8.533s-3.82-8.533-8.533-8.533z"/></svg>