<svg height="512" viewBox="0 0 512.002 512.002" width="512" xmlns="http://www.w3.org/2000/svg"><path d="M496.997 0H439c-41.355 0-75 33.645-75 75v99.003c0 36.655-27.533 67-63.003 71.44V45.002c0-8.271 6.729-15 15-15h13c8.284 0 15-6.716 15-15s-6.716-15-15-15h-146c-8.284 0-15 6.716-15 15s6.716 15 15 15h13c8.271 0 15 6.729 15 15v200.44c-35.467-4.444-62.995-34.787-62.995-71.439V75c0-41.355-33.645-75-75-75H15.005c-8.284 0-15 6.716-15 15v60c0 8.281 6.71 14.995 14.991 15l43.005.025v83.978c0 86.306 67.838 157.065 152.995 161.752v131.247c0 8.271-6.729 15-15 15h-13c-8.284 0-15 6.716-15 15s6.716 15 15 15h146c8.284 0 15-6.716 15-15s-6.716-15-15-15h-13c-8.271 0-15-6.729-15-15V335.756C386.153 331.069 454 260.31 454 174.009L454.03 90h42.967c8.284 0 15-6.716 15-15V15c0-8.284-6.716-15-15-15z"/></svg>