<svg height="511pt" viewBox="0 -65 511.999 511" width="511pt" xmlns="http://www.w3.org/2000/svg"><path d="M10 225.664c-5.523 0-9.996 4.477-9.996 10 0 5.524 4.48 10 10.004 10 5.523 0 10-4.476 10-10 0-5.523-4.477-10-10-10zm0 0M429.313 228.902c0-10.261-3.758-19.664-9.973-26.898 12.34-7.16 20.66-20.524 20.66-35.79 0-15.269-8.328-28.62-20.676-35.78 6.219-7.239 9.992-16.637 9.992-26.903 0-22.797-18.546-41.344-41.343-41.344h-46.528c-7.582-8.644-18.699-14.12-31.074-14.12h-13.305c-5.523 0-10 4.48-10 10 0 5.523 4.477 10 10 10h13.305c7.316 0 13.785 3.706 17.629 9.335.098.157.188.313.293.461a21.206 21.206 0 013.418 11.547v76.805c0 11.77-9.574 21.344-21.34 21.344-11.77 0-21.344-9.575-21.344-21.344v-32.496-.028V120.75c0-5.523-4.476-10-10-10-5.523 0-10 4.477-10 10v12.969c-.011 35.21-19.422 67.18-50.66 83.426a10.003 10.003 0 009.23 17.746 115.787 115.787 0 009.426-5.5c.247 20.797 15.918 37.941 36.086 40.507a41.051 41.051 0 00-6.164 21.684c0 7.805 2.176 15.11 5.946 21.344h-37.778c-51.172 0-97.41-32.43-115.062-80.696a10 10 0 00-9.39-6.562H50.003c-5.524 0-10 4.477-10 10 0 5.52 4.476 9.996 10 9.996h53.851a142.297 142.297 0 0019.196 32.496H10c-5.523 0-10 4.477-10 10 0 5.524 4.477 10 10 10h132.168c25.371 21.887 58.168 34.77 92.945 34.77H377.29c22.797 0 41.34-18.547 41.34-41.344 0-10.27-3.77-19.668-9.988-26.902 12.343-7.16 20.672-20.512 20.672-35.782zm-41.34-146.714c11.77 0 21.343 9.574 21.343 21.343 0 11.766-9.574 21.34-21.343 21.34h-36.258v-35.46c0-2.466-.23-4.876-.649-7.224zM377.289 312.93h-69.012c-11.761-.008-21.332-9.578-21.332-21.344 0-11.77 9.575-21.344 21.344-21.344h69c11.766 0 21.34 9.574 21.34 21.344 0 11.77-9.57 21.344-21.34 21.344zm10.684-62.688H278.352c-11.766 0-21.34-9.574-21.34-21.34 0-11.77 9.574-21.343 21.34-21.343h109.62c11.766 0 21.34 9.574 21.34 21.343 0 11.766-9.574 21.34-21.34 21.34zm10.683-62.683h-52.89a41.129 41.129 0 005.949-21.344V144.87h46.941c11.77 0 21.344 9.574 21.344 21.344 0 11.77-9.574 21.344-21.344 21.344zm0 0M10 125.219h99.188c-.72 4.101 1.18 8.383 5.03 10.496a9.997 9.997 0 0013.578-3.957c18.63-33.953 52.509-57.336 90.626-62.555 5.473-.75 9.3-5.793 8.55-11.262-.745-5.472-5.788-9.3-11.261-8.554-37.703 5.16-71.828 25.586-94.524 55.832H10c-5.523 0-10 4.476-10 10s4.477 10 10 10zm0 0"/><path d="M130.742 312.93h-30.738c-5.524 0-10 4.476-10 10 0 5.523 4.476 10 10 10h30.738c5.524 0 10-4.477 10-10 0-5.524-4.476-10-10-10zm0 0M50 85.219h30.742c5.524 0 10-4.48 10-10 0-5.524-4.476-10-10-10H50c-5.523 0-10 4.476-10 10 0 5.52 4.477 10 10 10zm0 0M474.926 52.57A9.97 9.97 0 00482 55.5a9.968 9.968 0 007.07-2.93c3.903-3.906 3.903-10.238 0-14.14l-35-35c-3.906-3.907-10.238-3.907-14.144 0-3.903 3.902-3.903 10.234 0 14.14zm0 0M474.926 328.426l-35 35c-3.903 3.906-3.903 10.238 0 14.144A9.97 9.97 0 00447 380.5c2.559 0 5.117-.98 7.07-2.93l35-35c3.903-3.906 3.903-10.238 0-14.144-3.906-3.903-10.238-3.903-14.144 0zm0 0M497 249.152l-29.434 16.993c-4.785 2.761-6.421 8.878-3.66 13.66a9.992 9.992 0 008.668 5 9.96 9.96 0 004.992-1.34l29.43-16.992c4.785-2.762 6.422-8.88 3.66-13.66-2.758-4.786-8.875-6.422-13.656-3.66zm0 0M463.906 101.191c-2.761 4.786-1.125 10.899 3.66 13.66L497 131.845a9.992 9.992 0 0013.656-3.656c2.762-4.786 1.125-10.903-3.66-13.66l-29.43-16.997c-4.785-2.761-10.898-1.12-13.66 3.66zm0 0M502 180.5h-16.996c-5.524 0-10 4.477-10 10 0 5.52 4.476 10 10 10H502c5.52 0 9.996-4.48 9.996-10 0-5.523-4.476-10-9.996-10zm0 0M257.07 68.066c5.524 0 10-4.476 10-10 0-5.52-4.476-10-10-10h-.007c-5.524 0-9.997 4.48-9.997 10 0 5.524 4.48 10 10.004 10zm0 0"/></svg>