<svg height="511pt" viewBox="0 -65 511.99931 511" width="511pt" xmlns="http://www.w3.org/2000/svg"><path d="m10 225.664062c-5.523438 0-9.99609375 4.476563-9.99609375 10 0 5.523438 4.48046875 10 10.00390575 10 5.523438 0 10-4.476562 10-10 0-5.523437-4.476562-10-10-10zm0 0"/><path d="m429.3125 228.902344c0-10.261719-3.757812-19.664063-9.972656-26.898438 12.339844-7.160156 20.660156-20.523437 20.660156-35.789062 0-15.269532-8.328125-28.621094-20.675781-35.78125 6.21875-7.238282 9.992187-16.636719 9.992187-26.902344 0-22.796875-18.546875-41.34375-41.34375-41.34375h-46.527344c-7.582031-8.644531-18.699218-14.121094-31.074218-14.121094h-13.304688c-5.523437 0-10 4.480469-10 10 0 5.523438 4.476563 10 10 10h13.304688c7.316406 0 13.785156 3.707032 17.628906 9.335938.097656.15625.1875.3125.292969.460937 2.152343 3.332031 3.417969 7.289063 3.417969 11.546875v76.804688c0 11.769531-9.574219 21.34375-21.339844 21.34375-11.769532 0-21.34375-9.574219-21.34375-21.34375v-32.496094c0-.011719 0-.019531 0-.027344 0-.003906 0-.007812 0-.011718v-12.929688c0-5.523438-4.476563-10-10-10-5.523438 0-10 4.476562-10 10v12.96875c-.011719 35.210938-19.421875 67.179688-50.660156 83.425781-4.898438 2.550781-6.804688 8.585938-4.257813 13.488281 1.785156 3.425782 5.269531 5.386719 8.882813 5.386719 1.550781 0 3.128906-.363281 4.605468-1.128906 3.253906-1.695313 6.390625-3.535156 9.425782-5.5.246093 20.796875 15.917968 37.941406 36.085937 40.507813-3.90625 6.308593-6.164063 13.734374-6.164063 21.683593 0 7.804688 2.175782 15.109375 5.945313 21.34375h-37.777344c-51.171875 0-97.410156-32.429687-115.0625-80.695312-1.441406-3.941407-5.195312-6.5625-9.390625-6.5625h-60.65625c-5.523437 0-10 4.476562-10 10 0 5.519531 4.476563 9.996093 10 9.996093h53.851563c4.988281 11.792969 11.484375 22.683594 19.195312 32.496094h-113.050781c-5.523438 0-10 4.476563-10 10 0 5.523438 4.476562 10 10 10h132.167969c25.371093 21.886719 58.167969 34.769532 92.945312 34.769532h73.15625.019531.007813 68.992187c22.796876 0 41.339844-18.546876 41.339844-41.34375 0-10.269532-3.769531-19.667969-9.988281-26.902344 12.34375-7.160156 20.671875-20.511719 20.671875-35.78125zm-41.339844-146.714844c11.769532 0 21.34375 9.574219 21.34375 21.34375 0 11.765625-9.574218 21.339844-21.34375 21.339844h-36.257812v-35.460938c0-2.464844-.230469-4.875-.648438-7.222656zm-10.683594 230.742188h-69.011718c-11.761719-.007813-21.332032-9.578126-21.332032-21.34375 0-11.769532 9.574219-21.34375 21.34375-21.34375h69c11.765626 0 21.339844 9.574218 21.339844 21.34375 0 11.769531-9.570312 21.34375-21.339844 21.34375zm10.683594-62.6875h-109.621094c-11.765624 0-21.339843-9.574219-21.339843-21.339844 0-11.769532 9.574219-21.34375 21.339843-21.34375h109.621094c11.765625 0 21.339844 9.574218 21.339844 21.34375 0 11.765625-9.574219 21.339844-21.339844 21.339844zm10.683594-62.683594h-52.890625c3.769531-6.234375 5.949219-13.539063 5.949219-21.34375v-21.34375h46.941406c11.769531 0 21.34375 9.574218 21.34375 21.34375 0 11.769531-9.574219 21.34375-21.34375 21.34375zm0 0"/><path d="m10 125.21875h99.1875c-.71875 4.101562 1.179688 8.382812 5.03125 10.496094 1.527344.835937 3.175781 1.234375 4.800781 1.234375 3.535157 0 6.957031-1.875 8.777344-5.191407 18.628906-33.953124 52.507813-57.335937 90.625-62.554687 5.472656-.75 9.300781-5.792969 8.550781-11.261719-.746094-5.472656-5.789062-9.300781-11.261718-8.554687-37.703126 5.160156-71.828126 25.585937-94.523438 55.832031h-111.1875c-5.523438 0-10 4.476562-10 10s4.476562 10 10 10zm0 0"/><path d="m130.742188 312.929688h-30.738282c-5.523437 0-10 4.476562-10 10 0 5.523437 4.476563 10 10 10h30.738282c5.523437 0 10-4.476563 10-10 0-5.523438-4.476563-10-10-10zm0 0"/><path d="m50 85.21875h30.742188c5.523437 0 10-4.480469 10-10 0-5.523438-4.476563-10-10-10h-30.742188c-5.523438 0-10 4.476562-10 10 0 5.519531 4.476562 10 10 10zm0 0"/><path d="m474.925781 52.570312c1.953125 1.953126 4.511719 2.929688 7.074219 2.929688 2.558594 0 5.117188-.976562 7.070312-2.929688 3.902344-3.90625 3.902344-10.238281 0-14.140624l-35-35c-3.90625-3.90625-10.238281-3.90625-14.144531 0-3.902343 3.902343-3.902343 10.234374 0 14.140624zm0 0"/><path d="m474.925781 328.425781-35 35c-3.902343 3.90625-3.902343 10.238281 0 14.144531 1.953125 1.953126 4.511719 2.929688 7.074219 2.929688 2.558594 0 5.117188-.980469 7.070312-2.929688l35-35c3.902344-3.90625 3.902344-10.238281 0-14.144531-3.90625-3.902343-10.238281-3.902343-14.144531 0zm0 0"/><path d="m497 249.152344-29.433594 16.992187c-4.785156 2.761719-6.421875 8.878907-3.660156 13.660157 1.851562 3.207031 5.210938 5 8.667969 5 1.695312 0 3.414062-.429688 4.992187-1.339844l29.429688-16.992188c4.785156-2.761718 6.421875-8.878906 3.660156-13.660156-2.757812-4.785156-8.875-6.421875-13.65625-3.660156zm0 0"/><path d="m463.90625 101.191406c-2.761719 4.785156-1.125 10.898438 3.660156 13.660156l29.433594 16.992188c1.574219.910156 3.292969 1.34375 4.988281 1.34375 3.457031 0 6.816407-1.792969 8.667969-5 2.761719-4.785156 1.125-10.902344-3.660156-13.660156l-29.429688-16.996094c-4.785156-2.761719-10.898437-1.121094-13.660156 3.660156zm0 0"/><path d="m502 180.5h-16.996094c-5.523437 0-10 4.476562-10 10 0 5.519531 4.476563 10 10 10h16.996094c5.519531 0 9.996094-4.480469 9.996094-10 0-5.523438-4.476563-10-9.996094-10zm0 0"/><path d="m257.070312 68.066406c5.523438 0 10-4.476562 10-10 0-5.519531-4.476562-10-10-10h-.007812c-5.523438 0-9.996094 4.480469-9.996094 10 0 5.523438 4.480469 10 10.003906 10zm0 0"/></svg>