<svg height="636" viewBox="0 0 477.573 477" width="636" xmlns="http://www.w3.org/2000/svg"><path d="M409.375 57.71l-45.25 22.626c-.32.156-.512.469-.8.672a7.065 7.065 0 00-1.278.797L234.324 209.598H192.34a7.992 7.992 0 00-5.653 2.343l-22.632 22.625a7.998 7.998 0 00-1.953 8.204 7.998 7.998 0 006.48 5.398l3.961.566-14.145 14.121 11.313 11.313 22.629-22.633 3.418.488a7.908 7.908 0 002.246 5.176l5.656 5.656-11.308 11.313 11.308 11.309 11.313-11.309 5.656 5.652a7.893 7.893 0 005.176 2.25l.488 3.407-22.633 22.632 11.313 11.313 14.144-14.145.57 4a7.998 7.998 0 0013.598 4.528l22.625-22.63a8.001 8.001 0 002.344-5.655v-41.985l127.77-127.762c.37-.441.69-.925.956-1.437.153-.242.41-.387.54-.64l22.62-45.25a7.996 7.996 0 00-1.495-9.239 7.995 7.995 0 00-9.239-1.496zm-202.89 179.688l-19.798-2.832 8.965-8.968h22.625zm45.738 44.801l-8.97 8.969-2.831-19.8 11.8-11.794zm2.343-47.601l-4.418 4.425-23.87 23.832-11.313-11.312 23.863-23.871 4.426-4.418 50.91-50.91 11.313 11.308zm62.223-62.223l-11.312-11.313 11.312-11.312 11.313 11.312zm22.633-22.625l-11.32-11.32 11.312-11.313 11.32 11.32zm22.625-22.625l-11.32-11.352 16.976-16.976 11.32 11.32zm26.094-30.48l-6.934-6.934 13.863-6.93zm0 0M124.457 296.793l22.629-22.633 11.312 11.313-22.625 22.632zm0 0M169.715 342.043l22.629-22.629 11.312 11.316-22.629 22.625zm0 0"/><path d="M113.14 353.36l67.883-67.88 11.317 11.313-67.883 67.883zm0 0M271.535 443.871l14.145-14.144.566 4a8.003 8.003 0 005.399 6.476c2.882.957 6.062.2 8.203-1.957l22.62-22.625a8.001 8.001 0 002.344-5.656v-41.977l127.762-127.765c.371-.434.688-.907.953-1.41.168-.247.43-.399.567-.672l22.633-45.246a8.002 8.002 0 00-10.739-10.739l-45.261 22.633c-.274.129-.426.402-.672.563-.504.257-.977.57-1.41.933L290.887 334.047H248.91a8.001 8.001 0 00-5.656 2.344l-22.633 22.632a7.998 7.998 0 004.527 13.598l4 .563-14.183 14.117 11.312 11.32 22.633-22.633 3.406.489a7.942 7.942 0 002.25 5.168l5.657 5.656-11.313 11.32 11.313 11.313 11.312-11.32 5.656 5.663a7.99 7.99 0 005.176 2.243l.488 3.414-22.632 22.625zm37.254-37.25l-8.969 8.969-2.832-19.8 11.801-11.802zm142.848-199.414l-6.91 13.887-6.93-6.926zm-27.367 16.047l11.312 11.312-16.969 16.977-11.312-11.32zm-28.282 28.281l11.313 11.32-11.32 11.313-11.313-11.313zm-22.629 22.633l11.309 11.309-11.309 11.32-11.312-11.32zm-130.113 84.855l8.977-8.976h22.632l-11.808 11.8zm39.61 28.278l-11.32-11.313 79.198-79.199 11.313 11.32zm0 0M181.031 421.246l22.63-22.625 11.312 11.313-22.63 22.625zm0 0M226.285 466.504l22.63-22.629 11.312 11.313-22.625 22.628zm0 0"/><path d="M181.02 466.496l56.57-56.57 11.312 11.316-56.566 56.567zm0 0M45.262 217.598l22.664-22.633 3.414.488a7.99 7.99 0 002.242 5.176l5.664 5.656-11.32 11.313 11.312 11.312 11.32-11.312 5.657 5.656a7.942 7.942 0 005.168 2.25l.488 3.406-22.633 22.633 11.32 11.312 14.145-14.144.559 3.96a7.999 7.999 0 005.39 6.454 7.853 7.853 0 002.532.418 7.992 7.992 0 005.652-2.344l22.633-22.633a8.001 8.001 0 002.344-5.656v-41.945L271.573 59.207c.363-.434.676-.906.934-1.41.16-.246.433-.399.562-.672l22.633-45.254a8.002 8.002 0 00-10.738-10.738L239.68 23.766c-.274.136-.426.402-.676.57-.5.254-.973.57-1.406.934L109.828 153.03H67.926a8.001 8.001 0 00-5.656 2.344L39.605 178a7.999 7.999 0 004.52 13.598l4 .57-14.176 14.117zm82.511 8l-8.976 8.976-2.824-19.793 11.8-11.808zm142.84-199.414l-6.925 13.863-6.961-6.953zm-27.36 16.054l11.313 11.313-16.968 16.969-11.32-11.313zM214.966 70.52l11.36 11.308-11.36 11.32-11.313-11.308zM192.34 93.148l11.312 11.313-11.312 11.312-11.317-11.312zm-22.63 22.625l11.321 11.313-79.203 79.2-11.308-11.321zM71.2 169.031h22.628l-11.797 11.797-19.8-2.828zm0 0M0 240.223l22.629-22.625L33.94 228.91l-22.629 22.63zm0 0M45.254 285.477l22.629-22.625 11.312 11.312-22.625 22.629zm0 0M.008 285.48l56.57-56.57 11.313 11.317-56.567 56.566zm0 0"/></svg>