<svg height="512" viewBox="0 0 509.15 509.15" width="512" xmlns="http://www.w3.org/2000/svg"><path d="M323.563 413.037c77.197 0 140.001-62.804 140.001-140.001S400.76 133.034 323.563 133.034s-140.002 62.804-140.002 140.002 62.805 140.001 140.002 140.001zm-104.24-147.502h-20.531c1.715-28.828 13.242-55.054 31.283-75.381l14.476 14.476c1.464 1.465 3.384 2.197 5.303 2.197s3.839-.732 5.303-2.197a7.5 7.5 0 000-10.606l-14.476-14.476c20.327-18.041 46.553-29.568 75.381-31.283v20.531c0 4.142 3.357 7.5 7.5 7.5s7.5-3.358 7.5-7.5v-20.531c28.828 1.715 55.054 13.242 75.38 31.283l-14.476 14.476a7.5 7.5 0 005.304 12.803 7.478 7.478 0 005.304-2.197l14.475-14.476c18.04 20.327 29.568 46.552 31.282 75.38H427.8c-4.143 0-7.5 3.358-7.5 7.5s3.357 7.5 7.5 7.5h20.531c-1.715 28.828-13.242 55.054-31.283 75.38l-14.475-14.475a7.5 7.5 0 00-10.607 10.606l14.476 14.476c-20.327 18.041-46.552 29.568-75.38 31.283v-20.531c0-4.142-3.357-7.5-7.5-7.5s-7.5 3.358-7.5 7.5v20.531c-28.829-1.715-55.054-13.242-75.381-31.283l14.476-14.475a7.5 7.5 0 000-10.606 7.498 7.498 0 00-10.606 0l-14.476 14.475c-18.041-20.327-29.568-46.552-31.283-75.381h20.531a7.5 7.5 0 000-14.999z"/><path d="M414.502 417.388c-27.184 17.163-58.63 26.234-90.939 26.234-94.062 0-170.587-76.525-170.587-170.587 0-38.081 12.27-74.099 35.482-104.161a7.5 7.5 0 00-11.873-9.167c-25.259 32.711-38.609 71.899-38.609 113.328 0 102.333 83.254 185.587 185.587 185.587 35.148 0 69.364-9.873 98.947-28.551a7.5 7.5 0 10-8.008-12.683zM368.795 93.033v-28.43c0-7.762-6.315-14.076-14.076-14.076h-62.314c-7.762 0-14.076 6.314-14.076 14.076v28.422c-29.825 7.472-57.496 22.296-80.527 43.528a7.501 7.501 0 0010.167 11.029c31.571-29.105 72.623-45.134 115.593-45.134 94.062 0 170.587 76.525 170.587 170.587 0 48.281-20.597 94.511-56.51 126.833a7.5 7.5 0 0010.035 11.149c39.068-35.163 61.475-85.456 61.475-137.983.001-86.734-59.812-159.753-140.354-180.001zm-75.465-3.124V65.527h60.466v24.397a186.02 186.02 0 00-30.232-2.476c-10.207 0-20.313.832-30.234 2.461z"/><path d="M323.563 278.288a7.493 7.493 0 006.545-3.843l25.872-25.872a7.5 7.5 0 10-10.608-10.607l-14.31 14.309v-36.524c0-4.142-3.357-7.5-7.5-7.5s-7.5 3.358-7.5 7.5v55.035a7.501 7.501 0 007.501 7.502zM110.675 274.728a7.5 7.5 0 00-7.5-7.5H7.5a7.5 7.5 0 000 15h95.675a7.5 7.5 0 007.5-7.5zM37.414 238.55h75.762a7.5 7.5 0 000-15H37.414a7.5 7.5 0 000 15zM123.175 179.871H61.042a7.5 7.5 0 000 15h62.133a7.5 7.5 0 000-15zM120.675 315.021a7.5 7.5 0 00-7.5-7.5H37.414a7.5 7.5 0 000 15h75.762a7.5 7.5 0 007.499-7.5zM123.175 351.2H61.042a7.5 7.5 0 000 15h62.133a7.5 7.5 0 000-15z"/></svg>