<svg xmlns="http://www.w3.org/2000/svg" viewBox="0 0 213.42 213.42"><path d="M106.71 178.015c-.359 0-.718-.097-1.036-.29-.274-.166-27.792-16.962-61.582-48.413C10.153 97.722.564 76.663.172 75.782a2 2 0 01.263-2.059c.487-.612 12.055-15.077 22.092-22.605 9.952-7.464 18.102-11.886 18.444-12.071.216-.116.451-.192.694-.223.199-.026 20.105-2.571 36.111-3.156 4.772-.175 9.722-.263 14.711-.263 7.913 0 13.45.227 14.223.26.772-.033 6.311-.26 14.223-.26 4.989 0 9.939.088 14.711.263 16.005.585 35.911 3.13 36.11 3.156.243.031.479.107.694.223.342.185 8.492 4.607 18.444 12.071 10.037 7.528 21.604 21.993 22.092 22.605a2 2 0 01.263 2.059c-.392.881-9.98 21.94-43.919 53.53-33.791 31.451-61.308 48.247-61.582 48.413-.318.193-.677.29-1.036.29zM4.361 75.236c2.411 4.675 13.455 24.153 42.457 51.148 29.811 27.747 54.61 43.934 59.893 47.273 5.284-3.342 30.103-19.546 59.893-47.273 28.998-26.991 40.043-46.468 42.457-51.148-2.792-3.397-12.398-14.792-20.567-20.917-8.616-6.462-16.021-10.683-17.624-11.574-2.806-.351-20.756-2.544-35.371-3.079-4.724-.173-9.624-.26-14.564-.26-8.398 0-14.075.257-14.131.26a1.903 1.903 0 01-.185 0c-.056-.003-5.731-.26-14.13-.26-4.941 0-9.841.087-14.564.26-14.619.535-32.565 2.728-35.372 3.079-1.602.892-9.007 5.112-17.624 11.574-8.175 6.13-17.778 17.52-20.568 20.917zm102.483 86.173c-.18 0-.359-.024-.535-.073-.144-.04-3.589-1.022-9.871-4.995-6.13-3.876-11.969-8.553-12.215-8.75a2 2 0 01-.548-2.431 1.995 1.995 0 012.246-1.079c.133.03 13.358 3.03 21.04 3.117l.625.003c7.772 0 19.35-1.521 19.465-1.537a2 2 0 011.403 3.626c-.267.186-6.598 4.575-11.561 7.372-4.987 2.811-9.113 4.523-9.286 4.595a1.986 1.986 0 01-.763.152zM93.73 149.707a115.6 115.6 0 004.846 3.253c4.23 2.675 7.019 3.867 8.188 4.307a94.801 94.801 0 008.167-4.089 105.442 105.442 0 004.371-2.632c-3.714.345-8.069.656-11.715.656l-.67-.003c-3.877-.045-8.918-.752-13.187-1.492zm21.095-5.386h-.003c-8.362 0-18.351-1.249-28.886-3.611-27.119-6.081-41.75-25.795-42.359-26.631a2 2 0 012.221-3.085c.026.008 2.73.855 11.474 2.954 7.18 1.723 11.492 2.023 27.538 3.139 3.548.247 7.657.532 12.482.882 28.575 2.069 35.263 4.004 38.234 5.787 2.627 1.576 4.244 3.672 4.677 6.063.465 2.568-.445 5.311-2.705 8.15-3.26 4.096-11.312 6.352-22.673 6.352zm-63.757-27.775c6.005 6.115 18.217 16.332 35.743 20.261 10.252 2.299 19.939 3.514 28.011 3.514h.003c9.824 0 17.13-1.811 19.543-4.843 1.511-1.897 2.149-3.562 1.899-4.946-.28-1.545-1.677-2.672-2.799-3.346-3.391-2.034-14.637-3.646-36.465-5.227-4.821-.349-8.926-.634-12.47-.881-15.894-1.105-20.691-1.438-28.194-3.239-2.08-.499-3.821-.928-5.271-1.293zm120.089-7.51a2 2 0 01-1.999-2.067c.01-.371.156-9.312-7.846-16.083-8.732-7.389-23.889-9.975-36.119-11.401-5.119-.597-10.931-1.166-16.551-1.716-9.477-.927-18.431-1.803-23.444-2.742-3.255-.417-18.75-2.738-21.147-9.41-.573-1.593-.673-4.11 2.097-7.053 4.24-4.505 13.134-6.789 26.436-6.789 9.836 0 20.65 1.308 26.92 2.428 9.36 1.671 23.597 5.154 38.269 12.257 14.565 7.052 27.787 21.973 28.343 22.604.644.731.667 1.82.054 2.578l-13.458 16.65c-.386.48-.962.744-1.555.744zM92.584 55.775c-11.983 0-20.117 1.912-23.522 5.53-1.108 1.178-1.528 2.173-1.246 2.959 1.173 3.268 11.2 5.944 17.945 6.802.04.005.08.011.119.019 4.827.91 13.728 1.781 23.152 2.703 5.638.552 11.469 1.123 16.625 1.724 13.582 1.584 28.746 4.287 38.239 12.32 5.553 4.699 7.784 10.315 8.676 14.271l9.405-11.636c-3.484-3.717-14.473-14.853-25.946-20.407-14.261-6.904-28.117-10.293-37.229-11.92-6.11-1.091-16.642-2.365-26.218-2.365zm-63.912 40.45a1.995 1.995 0 01-1.623-.831L16.634 80.909a1.999 1.999 0 01-.276-1.792c.162-.492 4.074-12.155 14.066-20.914 9.884-8.664 16.717-11.027 17.003-11.124.206-.069.421-.104.639-.104H59.72a2 2 0 01.619 3.902c-.195.063-19.607 6.502-26.2 18.57-6.574 12.032-3.562 24.155-3.531 24.276a2.003 2.003 0 01-1.936 2.502zm-8.169-16.787l5.364 7.46c-.042-5.142.854-12.214 4.762-19.368 4.216-7.717 12.663-13.213 19.272-16.554H48.43c-1.327.527-7.245 3.115-15.369 10.236-7.593 6.656-11.448 15.392-12.558 18.226zm172.293 8.768a2 2 0 01-1.434-.606c-.348-.357-8.568-8.839-13.052-15.748-4.574-7.046-6.883-17.341-6.979-17.775a1.998 1.998 0 01.808-2.071 2.003 2.003 0 012.223-.045c.251.161 6.246 4.026 13.612 11.272 7.415 7.293 11.881 15.073 12.067 15.4a1.999 1.999 0 01-.204 2.272l-5.507 6.584a2 2 0 01-1.459.715c-.025.002-.05.002-.075.002zm-16.034-29.542c1.083 3.364 2.729 7.662 4.903 11.01 3.149 4.852 8.444 10.736 11.039 13.524l3.146-3.762c-1.506-2.398-5.315-8.074-10.682-13.353a103.15 103.15 0 00-8.406-7.419zm-14.705 1.743c-4.676 0-11.09-2.321-17.294-4.565-2.49-.901-4.842-1.751-7.042-2.444-8.201-2.58-19.597-5.2-19.711-5.226a2 2 0 01.446-3.949c.145 0 14.593.011 28.271.963 13.715.954 19.141 1.901 19.365 1.941a2 2 0 011.488 1.182c.249.581 2.378 5.78.433 9.243-.595 1.058-1.817 2.393-4.263 2.743-.525.074-1.095.112-1.693.112zm-26.391-11.806c1.116.324 2.21.653 3.255.982 2.281.717 4.783 1.623 7.203 2.498 5.879 2.127 11.959 4.326 15.934 4.327.409 0 .789-.025 1.127-.073.89-.127 1.184-.463 1.341-.743.608-1.082.198-3.236-.258-4.698-2.207-.316-7.783-1.019-17.818-1.717-3.636-.254-7.327-.44-10.784-.576z"/></svg>