<svg xmlns="http://www.w3.org/2000/svg" viewBox="0 0 64 64" width="512" height="512"><path d="M61.447 38.1L54 34.382V31a1 1 0 00-1-1h-5v-9a.978.978 0 00-.115-.443l-1.99-4A1 1 0 0045 16h-4v-3a1 1 0 00-1-1h-6a1 1 0 00-1 1v3h-4a1 1 0 00-.895.553l-1.99 4A.978.978 0 0026 21v1H3a1 1 0 00-1 1v4a1 1 0 001 1h19v2H11a1 1 0 00-1 1v3.382L2.553 38.1A1 1 0 002 39v3a9.01 9.01 0 009 9h42a9.01 9.01 0 009-9v-3a1 1 0 00-.553-.9zM35 14h4v2h-4zm-5.382 4h14.764l1 2H28.618zM28 22h18v3h-8v2h8v3H28zm-4 2h2v6h-2zM4 26v-2h18v2zm8 6h40v2H12zm41 17H11a7.011 7.011 0 01-6.929-6H6.08A6.987 6.987 0 0019 45.587 6.987 6.987 0 0031.92 43h.16A6.987 6.987 0 0045 45.587 6.987 6.987 0 0057.92 43h2.009A7.011 7.011 0 0153 49zm-39-4v-2h3.9a5 5 0 01-9.8 0H12v2zm12 0v-2h3.9a5 5 0 01-9.8 0H24v2zm14 0v-2h3.9a5 5 0 01-9.8 0H38v2zm12-1v-1h3.9a5 5 0 01-9.8 0H50v1zm8-3H4v-1.382L11.236 36h41.528L60 39.618z"/><path d="M30 25h2v2h-2zM34 25h2v2h-2z"/></svg>