<?xml version="1.0"?>
<svg xmlns="http://www.w3.org/2000/svg" viewBox="0 0 64 64" width="512" height="512"><g id="outline"><path d="M61.447,38.1,54,34.382V31a1,1,0,0,0-1-1H48V21a.978.978,0,0,0-.115-.443l-1.99-4A1,1,0,0,0,45,16H41V13a1,1,0,0,0-1-1H34a1,1,0,0,0-1,1v3H29a1,1,0,0,0-.895.553l-1.99,4A.978.978,0,0,0,26,21v1H3a1,1,0,0,0-1,1v4a1,1,0,0,0,1,1H22v2H11a1,1,0,0,0-1,1v3.382L2.553,38.1A1,1,0,0,0,2,39v3a9.01,9.01,0,0,0,9,9H53a9.01,9.01,0,0,0,9-9V39A1,1,0,0,0,61.447,38.1ZM35,14h4v2H35Zm-5.382,4H44.382l1,2H28.618ZM28,22H46v3H38v2h8v3H28Zm-4,2h2v6H24ZM4,26V24H22v2Zm8,6H52v2H12ZM53,49H11a7.011,7.011,0,0,1-6.929-6H6.08A6.987,6.987,0,0,0,19,45.587,6.987,6.987,0,0,0,31.92,43h.16A6.987,6.987,0,0,0,45,45.587,6.987,6.987,0,0,0,57.92,43h2.009A7.011,7.011,0,0,1,53,49ZM14,45V43h3.9a5,5,0,0,1-9.8,0H12v2Zm12,0V43h3.9a5,5,0,0,1-9.8,0H24v2Zm14,0V43h3.9a5,5,0,0,1-9.8,0H38v2Zm12-1V43h3.9a5,5,0,0,1-9.8,0H50v1Zm8-3H4V39.618L11.236,36H52.764L60,39.618Z"/><rect x="30" y="25" width="2" height="2"/><rect x="34" y="25" width="2" height="2"/></g></svg>
