<svg xmlns="http://www.w3.org/2000/svg" viewBox="0 0 426.667 426.667"><path d="M128 117.333H85.333v85.334H0v42.666h85.333v85.334H128v-85.334h85.333v-42.666H128zM299.627 315.52l61.12-65.387c8-8.427 15.36-16.747 22.187-25.067 6.72-8.32 12.587-16.64 17.493-24.853 4.907-8.32 8.747-16.533 11.413-24.853 2.773-8.32 4.16-16.747 4.16-25.28 0-11.413-1.92-21.76-5.76-31.147-3.84-9.28-9.387-17.28-16.747-23.787S377.173 83.627 366.507 80c-10.667-3.52-22.827-5.333-36.48-5.333-14.72 0-27.947 2.24-39.467 6.827s-21.227 10.773-29.12 18.667c-7.893 7.893-13.867 17.173-17.92 27.733-3.84 10.027-5.76 20.8-5.973 32.107H283.2c.107-6.613.96-12.907 2.773-18.56 1.92-6.187 4.8-11.52 8.64-16 3.84-4.48 8.64-7.893 14.4-10.453 5.867-2.453 12.693-3.733 20.587-3.733 6.507 0 12.267 1.067 17.28 3.307 5.013 2.24 9.28 5.227 12.693 9.067 3.413 3.84 6.08 8.533 7.893 13.76 1.813 5.333 2.667 11.093 2.667 17.387 0 4.587-.64 9.28-1.813 13.867s-3.2 9.6-6.187 14.933-6.933 11.2-11.84 17.707c-4.907 6.4-11.2 13.76-18.667 22.08l-89.067 97.173V352h184.107v-36.48H299.627z"/></svg>