<svg height="512" viewBox="0 0 64 64" width="512" xmlns="http://www.w3.org/2000/svg"><path d="M35 60v-5.36a1 1 0 01.831-.985 21.8 21.8 0 007.779-2.974l-2.924-2.924a18.021 18.021 0 117.071-7.071l2.924 2.924a21.8 21.8 0 002.974-7.779A1 1 0 0154.64 35H60v-6h-5.36a1 1 0 01-.985-.831 21.789 21.789 0 00-3.634-8.769 1 1 0 01.111-1.282l3.785-3.792-4.238-4.238-3.792 3.785a1 1 0 01-1.282.111 21.789 21.789 0 00-8.774-3.634A1 1 0 0135 9.36V4h-6v5.36a1 1 0 01-.831.985 21.789 21.789 0 00-8.769 3.634 1 1 0 01-1.282-.111l-3.792-3.785-4.238 4.238 3.785 3.792a1 1 0 01.111 1.282 21.789 21.789 0 00-3.634 8.774 1 1 0 01-.99.831H4v6h5.36a1 1 0 01.985.831 21.789 21.789 0 003.634 8.774 1 1 0 01-.111 1.282l-3.785 3.792 4.238 4.238 3.792-3.785a1 1 0 011.282-.111 21.789 21.789 0 008.774 3.634 1 1 0 01.831.985V60z"/><path d="M58.87 54.627L39.723 35.479a5.006 5.006 0 01-1.423-4.166 7.993 7.993 0 00-10-8.674l4.412 4.411a1 1 0 01.293.707V32a1 1 0 01-1 1h-4.248a1 1 0 01-.707-.293L22.639 28.3a7.993 7.993 0 008.674 10 5.249 5.249 0 01.624-.037 4.979 4.979 0 013.542 1.456L54.627 58.87a3 3 0 004.243-4.243zm-19.8-15.556a1 1 0 01-1.414 0l-.707-.707a1 1 0 111.414-1.414l.707.707a1 1 0 01.001 1.414zM53.92 53.92a1 1 0 01-1.414 0L40.485 41.9a1 1 0 011.415-1.415l12.02 12.021a1 1 0 010 1.414zm3.536 3.536a1 1 0 01-1.414 0l-.708-.707a1 1 0 111.415-1.415l.707.708a1 1 0 010 1.414z"/><path d="M32 16a16 16 0 107.209 30.28l-5.144-5.143a3.016 3.016 0 00-2.515-.847 9.992 9.992 0 01-10.205-14.234 1 1 0 011.609-.274L28.171 31H31v-2.829l-5.218-5.217a1 1 0 01.274-1.609A9.993 9.993 0 0140.291 31.55a3.015 3.015 0 00.846 2.515l5.143 5.144A15.994 15.994 0 0032 16z"/></svg>